HIERARCHY
ROOT Hips
{
	OFFSET 0.000000 100.481300 0.000000
	CHANNELS 6 Xposition Yposition Zposition Xrotation Yrotation Zrotation
	JOINT Spine
	{
		OFFSET -0.279200 12.230698 -2.892100
		CHANNELS 3 Xrotation Yrotation Zrotation
		JOINT Spine1
		{
			OFFSET -0.325700 14.269203 -3.374200
			CHANNELS 3 Xrotation Yrotation Zrotation
			JOINT Spine2
			{
				OFFSET -0.372300 16.307602 -0.352600
				CHANNELS 3 Xrotation Yrotation Zrotation
				JOINT Neck
				{
					OFFSET -0.418800 17.814194 8.416900
					CHANNELS 3 Xrotation Yrotation Zrotation
					JOINT Head
					{
						OFFSET 0.000000 7.031097 3.806800
						CHANNELS 3 Xrotation Yrotation Zrotation
						JOINT HeadTop_End
						{
							OFFSET 0.000000 24.646606 12.978600
							CHANNELS 3 Xrotation Yrotation Zrotation
							End Site
							{
								OFFSET 0.000000 27.854965 0.000000
							}
						}
					}
				}
				JOINT LeftShoulder
				{
					OFFSET 16.952999 14.495407 -7.737500
					CHANNELS 3 Xrotation Yrotation Zrotation
					JOINT LeftArm
					{
						OFFSET 9.308998 -2.777710 0.208600
						CHANNELS 3 Xrotation Yrotation Zrotation
						JOINT LeftForeArm
						{
							OFFSET 29.972298 0.000000 0.000000
							CHANNELS 3 Xrotation Yrotation Zrotation
							JOINT LeftHand
							{
								OFFSET 26.026505 0.000000 0.000000
								CHANNELS 3 Xrotation Yrotation Zrotation
								JOINT LeftHandThumb1
								{
									OFFSET 12.240501 -7.147949 9.207150
									CHANNELS 3 Xrotation Yrotation Zrotation
									JOINT LeftHandThumb2
									{
										OFFSET 4.138618 -2.389435 2.389433
										CHANNELS 3 Xrotation Yrotation Zrotation
										JOINT LeftHandThumb3
										{
											OFFSET 2.726913 -1.574387 1.574386
											CHANNELS 3 Xrotation Yrotation Zrotation
											JOINT LeftHandThumb4
											{
												OFFSET 3.941010 -2.275345 2.275342
												CHANNELS 3 Xrotation Yrotation Zrotation
												End Site
												{
													OFFSET -0.005798 5.087799 0.009903
												}
											}
										}
									}
								}
								JOINT LeftHandIndex1
								{
									OFFSET 24.424698 -1.985611 5.953459
									CHANNELS 3 Xrotation Yrotation Zrotation
									JOINT LeftHandIndex2
									{
										OFFSET 6.426697 0.000000 0.000000
										CHANNELS 3 Xrotation Yrotation Zrotation
										JOINT LeftHandIndex3
										{
											OFFSET 5.337898 0.000000 0.000000
											CHANNELS 3 Xrotation Yrotation Zrotation
											JOINT LeftHandIndex4
											{
												OFFSET 4.409401 0.000000 0.000000
												CHANNELS 3 Xrotation Yrotation Zrotation
												End Site
												{
													OFFSET 0.000000 4.409363 0.014373
												}
											}
										}
									}
								}
								JOINT LeftHandMiddle1
								{
									OFFSET 23.810104 0.000000 0.000000
									CHANNELS 3 Xrotation Yrotation Zrotation
									JOINT LeftHandMiddle2
									{
										OFFSET 7.176498 0.000000 0.000000
										CHANNELS 3 Xrotation Yrotation Zrotation
										JOINT LeftHandMiddle3
										{
											OFFSET 6.774902 0.000000 0.000000
											CHANNELS 3 Xrotation Yrotation Zrotation
											JOINT LeftHandMiddle4
											{
												OFFSET 5.403328 0.000000 0.000000
												CHANNELS 3 Xrotation Yrotation Zrotation
												End Site
												{
													OFFSET -0.027702 5.403244 0.017414
												}
											}
										}
									}
								}
								JOINT LeftHandRing1
								{
									OFFSET 22.908401 -0.839279 -6.020567
									CHANNELS 3 Xrotation Yrotation Zrotation
									JOINT LeftHandRing2
									{
										OFFSET 6.337502 0.000000 0.000000
										CHANNELS 3 Xrotation Yrotation Zrotation
										JOINT LeftHandRing3
										{
											OFFSET 5.779297 0.000000 0.000000
											CHANNELS 3 Xrotation Yrotation Zrotation
											JOINT LeftHandRing4
											{
												OFFSET 4.965698 0.000000 0.000000
												CHANNELS 3 Xrotation Yrotation Zrotation
												End Site
												{
													OFFSET 0.000000 4.965668 0.016186
												}
											}
										}
									}
								}
								JOINT LeftHandPinky1
								{
									OFFSET 20.037003 -1.530319 -10.950146
									CHANNELS 3 Xrotation Yrotation Zrotation
									JOINT LeftHandPinky2
									{
										OFFSET 5.254700 0.000000 0.000000
										CHANNELS 3 Xrotation Yrotation Zrotation
										JOINT LeftHandPinky3
										{
											OFFSET 4.810204 0.000000 0.000000
											CHANNELS 3 Xrotation Yrotation Zrotation
											JOINT LeftHandPinky4
											{
												OFFSET 3.647202 0.000000 0.000000
												CHANNELS 3 Xrotation Yrotation Zrotation
												End Site
												{
													OFFSET 0.000000 3.647186 0.011889
												}
											}
										}
									}
								}
							}
						}
					}
				}
				JOINT RightShoulder
				{
					OFFSET -15.141001 14.495407 -7.737500
					CHANNELS 3 Xrotation Yrotation Zrotation
					JOINT RightArm
					{
						OFFSET -9.308998 -2.777710 0.208500
						CHANNELS 3 Xrotation Yrotation Zrotation
						JOINT RightForeArm
						{
							OFFSET -29.972300 0.000000 0.000000
							CHANNELS 3 Xrotation Yrotation Zrotation
							JOINT RightHand
							{
								OFFSET -26.026505 0.000000 0.000000
								CHANNELS 3 Xrotation Yrotation Zrotation
								JOINT RightHandThumb1
								{
									OFFSET -12.240601 -7.148026 9.207092
									CHANNELS 3 Xrotation Yrotation Zrotation
									JOINT RightHandThumb2
									{
										OFFSET -4.138618 -2.389435 2.389433
										CHANNELS 3 Xrotation Yrotation Zrotation
										JOINT RightHandThumb3
										{
											OFFSET -2.726974 -1.574417 1.574421
											CHANNELS 3 Xrotation Yrotation Zrotation
											JOINT RightHandThumb4
											{
												OFFSET -3.941010 -2.275345 2.275343
												CHANNELS 3 Xrotation Yrotation Zrotation
												End Site
												{
													OFFSET 0.005814 5.087799 0.009927
												}
											}
										}
									}
								}
								JOINT RightHandIndex1
								{
									OFFSET -24.424698 -1.985657 5.953444
									CHANNELS 3 Xrotation Yrotation Zrotation
									JOINT RightHandIndex2
									{
										OFFSET -6.426697 0.000000 0.000000
										CHANNELS 3 Xrotation Yrotation Zrotation
										JOINT RightHandIndex3
										{
											OFFSET -5.337898 0.000000 0.000000
											CHANNELS 3 Xrotation Yrotation Zrotation
											JOINT RightHandIndex4
											{
												OFFSET -4.409401 0.000000 0.000000
												CHANNELS 3 Xrotation Yrotation Zrotation
												End Site
												{
													OFFSET 0.000000 4.409363 0.014408
												}
											}
										}
									}
								}
								JOINT RightHandMiddle1
								{
									OFFSET -23.810097 0.000000 0.000000
									CHANNELS 3 Xrotation Yrotation Zrotation
									JOINT RightHandMiddle2
									{
										OFFSET -7.176498 0.000000 0.000000
										CHANNELS 3 Xrotation Yrotation Zrotation
										JOINT RightHandMiddle3
										{
											OFFSET -6.774902 0.000000 0.000000
											CHANNELS 3 Xrotation Yrotation Zrotation
											JOINT RightHandMiddle4
											{
												OFFSET -5.403328 0.000000 0.000000
												CHANNELS 3 Xrotation Yrotation Zrotation
												End Site
												{
													OFFSET 0.027702 5.403244 0.017457
												}
											}
										}
									}
								}
								JOINT RightHandRing1
								{
									OFFSET -22.908302 -0.839325 -6.020576
									CHANNELS 3 Xrotation Yrotation Zrotation
									JOINT RightHandRing2
									{
										OFFSET -6.337502 0.000000 0.000000
										CHANNELS 3 Xrotation Yrotation Zrotation
										JOINT RightHandRing3
										{
											OFFSET -5.779297 0.000000 0.000000
											CHANNELS 3 Xrotation Yrotation Zrotation
											JOINT RightHandRing4
											{
												OFFSET -4.965698 0.000000 0.000000
												CHANNELS 3 Xrotation Yrotation Zrotation
												End Site
												{
													OFFSET 0.000000 4.965668 0.016226
												}
											}
										}
									}
								}
								JOINT RightHandPinky1
								{
									OFFSET -20.037003 -1.530334 -10.950259
									CHANNELS 3 Xrotation Yrotation Zrotation
									JOINT RightHandPinky2
									{
										OFFSET -5.254700 0.000000 0.000000
										CHANNELS 3 Xrotation Yrotation Zrotation
										JOINT RightHandPinky3
										{
											OFFSET -4.810204 0.000000 0.000000
											CHANNELS 3 Xrotation Yrotation Zrotation
											JOINT RightHandPinky4
											{
												OFFSET -3.647202 0.000000 0.000000
												CHANNELS 3 Xrotation Yrotation Zrotation
												End Site
												{
													OFFSET 0.000000 3.647186 0.011917
												}
											}
										}
									}
								}
							}
						}
					}
				}
			}
		}
	}
	JOINT LeftUpLeg
	{
		OFFSET 15.427100 -6.655098 0.678600
		CHANNELS 3 Xrotation Yrotation Zrotation
		JOINT LeftLeg
		{
			OFFSET 4.081073 -39.591068 13.024000
			CHANNELS 3 Xrotation Yrotation Zrotation
			JOINT LeftFoot
			{
				OFFSET -4.081074 -37.707932 -15.979700
				CHANNELS 3 Xrotation Yrotation Zrotation
				JOINT LeftToeBase
				{
					OFFSET 5.346399 -15.068900 20.645000
					CHANNELS 3 Xrotation Yrotation Zrotation
					JOINT LeftToe_End
					{
						OFFSET 2.754700 0.931300 11.300900
						CHANNELS 3 Xrotation Yrotation Zrotation
						End Site
						{
							OFFSET 0.000000 11.669021 0.000000
						}
					}
				}
			}
		}
	}
	JOINT RightUpLeg
	{
		OFFSET -15.569500 -6.655098 0.678600
		CHANNELS 3 Xrotation Yrotation Zrotation
		JOINT RightLeg
		{
			OFFSET -4.081825 -39.591045 13.023800
			CHANNELS 3 Xrotation Yrotation Zrotation
			JOINT RightFoot
			{
				OFFSET 4.081824 -37.707954 -15.979600
				CHANNELS 3 Xrotation Yrotation Zrotation
				JOINT RightToeBase
				{
					OFFSET -5.346400 -15.068900 20.645000
					CHANNELS 3 Xrotation Yrotation Zrotation
					JOINT RightToe_End
					{
						OFFSET -2.754700 0.931300 11.300900
						CHANNELS 3 Xrotation Yrotation Zrotation
						End Site
						{
							OFFSET 0.000000 11.669021 0.000000
						}
					}
				}
			}
		}
	}
}
MOTION
Frames: 4
Frame Time: 0.033333
1.369707 29.590927 -3.421646 36.870119 13.058155 1.618952 9.507862 3.515051 -5.431868 18.836251 -2.580945 2.722637 18.836251 -2.580947 2.722639 -25.246095 3.528537 2.301028 -20.708758 22.145859 1.566232 -0.000000 -0.000003 0.000002 1.076350 5.580019 12.652227 -53.535620 4.228625 -68.304173 -0.049834 -124.722628 -0.041334 -50.030606 -8.761963 24.794500 -14.896132 3.070678 0.809444 -2.122643 1.514013 4.607130 0.000001 -0.000003 -0.000000 0.000001 -0.000000 0.000001 5.279805 11.856056 -19.949094 0.224684 1.696129 -18.154629 0.000001 -0.000000 -0.000001 -0.000001 -0.000000 0.000000 6.427170 3.821429 -38.123684 -0.268082 -0.991408 -24.042355 -0.000001 -0.000002 0.000004 0.000001 0.000000 -0.000003 0.054083 4.950314 -47.723259 -0.841648 -1.879573 -31.671963 0.000001 -0.000000 0.000001 0.000001 -0.000002 0.000003 -1.056515 6.412630 -59.468565 -1.523057 -5.278317 -31.217766 0.000001 0.000002 0.000000 0.000000 -0.000000 0.000000 -17.751960 15.305945 -17.683490 -51.645547 16.467456 65.991034 0.057514 37.628328 -0.035003 43.866805 -3.325148 -14.280133 11.552122 5.092061 31.762384 -0.647663 -5.164387 -4.966393 0.000007 0.000011 -0.000012 -0.000003 0.000001 0.000000 4.984461 10.385364 -4.674319 0.010618 -0.500499 3.836618 -0.000001 -0.000002 0.000001 -0.000001 -0.000001 -0.000000 9.110123 -2.698248 -9.041591 0.003519 -0.120576 0.011509 0.000000 -0.000014 0.000001 0.000001 0.000001 -0.000000 0.707961 -12.736273 -10.069327 0.009960 -1.199134 0.048957 0.000000 0.000000 -0.000002 0.000000 0.000000 -0.000002 5.001582 -26.199818 -0.133321 -0.063661 -1.078206 0.000007 0.000000 -0.000000 -0.000004 -0.000000 0.000000 -0.000001 -99.401758 -38.805945 39.282505 33.546747 -0.231807 -2.991803 48.902720 -8.979452 -47.349487 0.026879 4.994025 -16.465406 -0.000000 -0.000000 0.000001 -35.981587 11.867966 -60.126005 107.377138 31.799899 18.785554 16.233580 20.223715 -17.247093 29.936040 69.817367 40.501847 0.000001 -0.000002 -0.000000 
1.368684 29.586723 -3.425564 36.871888 13.070246 1.604023 9.505839 3.515079 -5.433560 18.832177 -2.581124 2.726347 18.832143 -2.581128 2.726346 -25.221744 3.527410 2.314526 -20.702741 22.129328 1.635550 0.000001 0.000000 0.000000 1.087451 5.625474 12.682905 -53.499550 4.178502 -68.393116 -0.049886 -124.712110 -0.041413 -50.029182 -8.817731 24.735356 -14.899926 3.054998 0.773991 -2.126094 1.516754 4.596666 0.000002 -0.000001 0.000001 0.000002 0.000000 -0.000000 5.301997 11.867147 -19.915623 0.225157 1.696975 -18.167579 -0.000001 0.000001 -0.000001 0.000000 0.000000 -0.000002 6.424355 3.828103 -38.064125 -0.268088 -0.991376 -24.042240 -0.000001 -0.000000 0.000003 0.000000 0.000000 -0.000003 0.058737 4.958833 -47.634333 -0.840472 -1.877921 -31.651015 -0.000001 -0.000002 -0.000000 -0.000001 0.000002 0.000001 -1.055873 6.416236 -59.449782 -1.523057 -5.278325 -31.217776 0.000001 -0.000001 0.000002 0.000000 0.000001 -0.000000 -17.750950 15.300959 -17.683452 -51.637084 16.486675 65.977346 0.057586 37.612629 -0.035046 43.825052 -3.314526 -14.270993 11.511478 5.107458 31.758119 -0.647641 -5.164391 -4.966379 0.000007 0.000010 -0.000013 -0.000000 0.000000 0.000003 4.984598 10.385091 -4.678328 0.010666 -0.501252 3.852278 -0.000001 -0.000003 -0.000003 -0.000001 0.000002 0.000000 9.109967 -2.699167 -9.045484 0.003517 -0.120487 0.011502 -0.000001 -0.000015 0.000001 0.000001 -0.000000 0.000004 0.707901 -12.736547 -10.073331 0.009965 -1.199222 0.048974 0.000000 -0.000000 -0.000001 0.000000 0.000000 -0.000001 5.001443 -26.200425 -0.137336 -0.063530 -1.077253 -0.000001 0.000000 -0.000001 0.000001 -0.000001 0.000001 0.000001 -99.485373 -38.742103 39.254316 33.529248 -0.226404 -2.988580 48.933920 -9.030973 -47.258762 0.026879 4.994024 -16.465407 -0.000000 0.000000 0.000000 -36.024733 11.817420 -60.149644 107.384774 31.791853 18.779624 16.281588 20.208848 -17.287993 30.349345 69.765287 40.074045 0.000001 -0.000000 -0.000000 
1.370548 29.585045 -3.432598 36.851497 13.095778 1.602465 9.512066 3.514660 -5.437695 18.845525 -2.592782 2.722494 18.845539 -2.592785 2.722500 -25.197215 3.528816 2.324766 -20.650879 22.135998 1.659527 -0.000000 0.000001 -0.000000 1.107744 5.707134 12.743454 -53.533660 4.134747 -68.532534 -0.049298 -124.674749 -0.040929 -50.015863 -8.921450 24.618572 -14.917309 2.989332 0.734638 -2.130864 1.521622 4.581299 0.000006 -0.000002 0.000001 0.000002 0.000002 -0.000002 5.320261 11.873000 -19.949400 0.225186 1.697021 -18.168464 -0.000001 -0.000000 0.000001 0.000000 0.000000 -0.000002 6.458027 3.825366 -38.088212 -0.268058 -0.991331 -24.041320 -0.000000 -0.000002 0.000003 -0.000001 -0.000001 0.000000 0.067393 4.951774 -47.704223 -0.841109 -1.878803 -31.662189 -0.000000 -0.000003 -0.000000 0.000002 -0.000001 0.000000 -1.060006 6.410915 -59.476167 -1.523062 -5.278199 -31.217298 -0.000000 0.000001 0.000001 -0.000000 0.000003 -0.000000 -17.746283 15.278211 -17.694114 -51.692415 16.515302 66.007577 0.056785 37.493429 -0.034445 43.797649 -3.261948 -14.398490 11.398087 5.150527 31.746531 -0.647648 -5.164362 -4.966396 0.000008 0.000009 -0.000013 -0.000000 -0.000001 0.000002 4.984101 10.386144 -4.663581 0.010492 -0.498533 3.794781 0.000002 -0.000001 0.000001 -0.000001 0.000000 -0.000003 9.110544 -2.695747 -9.031192 0.003486 -0.120896 0.011543 -0.000001 -0.000015 -0.000001 0.000001 0.000000 -0.000000 0.708084 -12.735596 -10.058636 0.009973 -1.198868 0.048962 0.000000 -0.000000 0.000000 0.000000 0.000000 0.000000 5.001942 -26.198179 -0.122593 -0.064213 -1.082094 -0.000003 0.000000 0.000000 -0.000002 -0.000001 0.000001 0.000002 -99.606827 -38.617497 39.194733 33.512333 -0.216978 -2.983756 48.976220 -9.109635 -47.104434 0.026879 4.994029 -16.465404 -0.000000 0.000003 -0.000000 -36.015266 11.763210 -60.150628 107.402505 31.773022 18.765287 16.261193 20.174804 -17.301788 30.987240 69.692983 39.427841 0.000001 0.000000 -0.000000 
1.374901 29.584244 -3.440804 36.837474 13.135611 1.599215 9.515917 3.522483 -5.443054 18.852019 -2.591997 2.716788 18.852015 -2.591997 2.716786 -25.154994 3.528271 2.312183 -20.586520 22.142715 1.632781 -0.000001 0.000003 0.000001 1.102723 5.695352 12.721086 -53.615981 4.025824 -68.569505 -0.049099 -124.604357 -0.040799 -49.990513 -8.982034 24.535952 -14.909512 3.018149 0.753137 -2.128013 1.519300 4.589941 -0.000003 -0.000001 -0.000001 0.000004 0.000001 -0.000001 5.322667 11.875002 -19.931301 0.224769 1.696245 -18.156458 -0.000001 0.000001 -0.000001 0.000002 0.000000 -0.000000 6.424256 3.830304 -38.044427 -0.268088 -0.991354 -24.042233 -0.000000 -0.000002 0.000005 -0.000000 -0.000001 0.000002 0.068929 4.957377 -47.646303 -0.841798 -1.879757 -31.674210 0.000000 -0.000003 0.000002 -0.000001 -0.000003 -0.000002 -1.062225 6.414039 -59.458948 -1.523349 -5.280762 -31.226976 -0.000000 0.000001 0.000001 -0.000001 -0.000001 -0.000002 -17.720719 15.200335 -17.813016 -51.773981 16.433304 66.112236 0.056351 37.354359 -0.034083 43.773846 -3.171169 -14.516235 11.224720 5.216602 31.729524 -0.647658 -5.164374 -4.966412 0.000010 0.000010 -0.000010 -0.000001 0.000001 0.000002 4.983849 10.386652 -4.656330 0.010408 -0.497200 3.766460 0.000001 0.000000 -0.000001 0.000000 0.000000 -0.000001 9.110837 -2.694057 -9.024151 0.003470 -0.121111 0.011569 -0.000001 -0.000015 0.000002 0.000001 0.000002 0.000001 0.708163 -12.735140 -10.051403 0.009984 -1.198701 0.048963 0.000000 -0.000000 -0.000001 -0.000000 0.000000 0.000000 5.002174 -26.197095 -0.115345 -0.064534 -1.084456 -0.000012 0.000001 -0.000000 -0.000003 -0.000001 0.000000 -0.000001 -99.722818 -38.509822 39.118392 33.489203 -0.202747 -2.976263 49.018321 -9.176428 -46.972806 0.026879 4.994030 -16.465406 -0.000000 0.000001 -0.000000 -36.010209 11.681713 -60.152663 107.426212 31.748256 18.746134 16.220016 20.125402 -17.327338 31.793554 69.606915 38.618115 0.000000 0.000003 -0.000000 
